<svg xmlns="http://www.w3.org/2000/svg" width="11.432" height="21.146" viewBox="0 0 11.432 21.146">
    <defs>
        <style>.a{fill:#9db9c3;}</style>
    </defs>
    <path class="a" d="M33.079,0,30.337,0c-3.081,0-5.072,2.043-5.072,5.2V7.6H22.508a.431.431,0,0,0-.431.431v3.476a.431.431,0,0,0,.431.431h2.757v8.772a.431.431,0,0,0,.431.431h3.6a.431.431,0,0,0,.431-.431V11.942h3.224a.431.431,0,0,0,.431-.431V8.035A.431.431,0,0,0,32.95,7.6H29.725V5.569c0-.978.233-1.474,1.506-1.474h1.847a.431.431,0,0,0,.431-.431V.436A.431.431,0,0,0,33.079,0Z" transform="translate(-22.077)" />
</svg>