<svg xmlns="http://www.w3.org/2000/svg" width="22.528" height="22.533" viewBox="0 0 22.528 22.533"><defs><style>.a{fill:#9db9c3;}</style></defs><path class="a" d="M22.92,6.625A8.234,8.234,0,0,0,22.4,3.891a5.772,5.772,0,0,0-3.3-3.3A8.255,8.255,0,0,0,16.366.071C15.159.013,14.776,0,11.717,0S8.275.013,7.073.066A8.236,8.236,0,0,0,4.34.59a5.5,5.5,0,0,0-2,1.3,5.548,5.548,0,0,0-1.3,1.994A8.256,8.256,0,0,0,.519,6.62C.462,7.826.449,8.209.449,11.269s.013,3.442.066,4.644a8.233,8.233,0,0,0,.524,2.734,5.771,5.771,0,0,0,3.3,3.3,8.256,8.256,0,0,0,2.734.524c1.2.053,1.585.066,4.644.066s3.442-.013,4.644-.066a8.231,8.231,0,0,0,2.733-.524,5.763,5.763,0,0,0,3.3-3.3,8.261,8.261,0,0,0,.524-2.734c.053-1.2.066-1.585.066-4.644s0-3.442-.057-4.644Zm-2.029,9.2a6.176,6.176,0,0,1-.387,2.091,3.738,3.738,0,0,1-2.139,2.139,6.2,6.2,0,0,1-2.091.387c-1.188.053-1.545.066-4.551.066s-3.367-.013-4.552-.066a6.173,6.173,0,0,1-2.091-.387,3.467,3.467,0,0,1-1.294-.841,3.5,3.5,0,0,1-.841-1.294,6.2,6.2,0,0,1-.387-2.091c-.053-1.188-.066-1.545-.066-4.552S2.5,7.91,2.557,6.726a6.173,6.173,0,0,1,.387-2.091A3.425,3.425,0,0,1,3.79,3.341,3.5,3.5,0,0,1,5.084,2.5a6.2,6.2,0,0,1,2.091-.387c1.188-.053,1.545-.066,4.551-.066s3.367.013,4.552.066a6.176,6.176,0,0,1,2.091.387,3.465,3.465,0,0,1,1.294.841A3.5,3.5,0,0,1,20.5,4.635a6.2,6.2,0,0,1,.387,2.091c.053,1.188.066,1.545.066,4.551s-.013,3.359-.066,4.547Zm0,0" transform="translate(-0.449 0)"/><path class="a" d="M130.737,124.5a5.788,5.788,0,1,0,5.788,5.788A5.79,5.79,0,0,0,130.737,124.5Zm0,9.543a3.755,3.755,0,1,1,3.755-3.755A3.755,3.755,0,0,1,130.737,134.043Zm0,0" transform="translate(-119.469 -119.02)"/><path class="a" d="M365.153,89.953A1.351,1.351,0,1,1,363.8,88.6,1.351,1.351,0,0,1,365.153,89.953Zm0,0" transform="translate(-346.515 -84.702)"/></svg>